<svg xmlns="http://www.w3.org/2000/svg" viewBox="0 0 107.95 107.84"><defs><style>.cls-1,.cls-2{fill:#282828;}.cls-1,.cls-4{stroke:#000;stroke-miterlimit:10;}.cls-3{fill:#fff;opacity:0.15;}.cls-4{fill:none;}</style></defs><title>Black Queen</title><g id="black"><g id="queen_copy" data-name="queen copy"><path class="cls-1" d="M25.14,96.14H83.59S86.61,81,54.36,81,25.14,96.14,25.14,96.14Z"/><polyline class="cls-1" points="31.55 85.06 14.81 49.34 15.26 48.01 23.41 43.38 25.57 45.05 34.81 55.73 37.07 31.03 37.1 27.94 47.85 26.4 46.48 28.72 54.37 52.64"/><path class="cls-1" d="M37.1,30.7a9.36,9.36,0,0,1-7.18-8.93,9.53,9.53,0,0,1,9.78-9.26,9.53,9.53,0,0,1,9.78,9.26,9,9,0,0,1-3.07,6.74"/><path class="cls-1" d="M15.49,49.46a9.45,9.45,0,0,1-8.38-9.17A9.53,9.53,0,0,1,16.89,31a9.53,9.53,0,0,1,9.78,9.26,8.8,8.8,0,0,1-1.56,5"/><polyline class="cls-1" points="77.18 85.06 93.92 49.34 93.47 48.01 85.1 43.17 73.92 55.73 71.64 30.86 72.29 29.48 62.51 26.4 62.33 28.51 54.37 52.64"/><path class="cls-1" d="M71.63,30.7a9.35,9.35,0,0,0,7.17-8.93,9.79,9.79,0,0,0-19.55,0,9,9,0,0,0,3.07,6.74"/><path class="cls-1" d="M93.51,49.42a9.44,9.44,0,0,0,8.11-9.13,9.79,9.79,0,0,0-19.56,0,8.8,8.8,0,0,0,1.56,5"/><polyline class="cls-2" points="31.8 68.35 32.2 57.37 49.42 51.64 60.18 51.64 78.55 57.37 77.54 85.06 36.23 84.1 31.19 85.06 31.8 68.35"/><path class="cls-3" d="M42.53,12.9a16.37,16.37,0,0,1,6,4.82,12.8,12.8,0,0,1,.83,6.88l-2.71,4,.49,2,5.51,16s-7.32-14-9.34-18S51.85,24.41,42.53,12.9Z"/><path class="cls-3" d="M97.69,32.66a15.85,15.85,0,0,1,3.87,6.65,17.23,17.23,0,0,1-1.35,5.78c-1.68,1.88-4.59,3.55-6.75,5.22l-17,34.74a47.39,47.39,0,0,0-15.06-4c7,0,26.78-29.34,28.57-32.8C95.68,40.72,99.71,46.76,97.69,32.66Z"/><path class="cls-3" d="M74.45,14.06l3.83,4.71a11.87,11.87,0,0,1-.74,7.84l-5.9,4.25,2,23.78s-4.14-22-4.14-26S79.56,26.61,74.45,14.06Z"/><polygon points="95.68 48.78 93.2 49.67 93.48 48.83 95.31 48.41 95.68 48.78"/><polygon points="71.29 32.56 71.84 32.53 71.63 30.18 71.03 30.29 71.29 32.56"/><polygon points="61.98 29.19 62.46 29.67 62.92 28.28 62.28 27.77 61.94 28.11 61.98 29.19"/><polygon points="46.41 27.81 46.7 28.34 46.62 29.64 46.24 29.64 45.77 28.2 46.41 27.81"/><polygon points="55.37 50.8 53.77 52.4 54.37 54.83 55.37 50.8"/><polygon points="37.13 30.19 37.07 31.03 37.57 30.94 37.59 30.32 37.13 30.19"/><path class="cls-3" d="M17.08,30.64c11.91,9.73,0,10.08,6.05,16.12L35.22,56.84,25.14,44.75c1.18-1.57,1.53-3.79,1.53-6.28l-3.18-5Z"/><line class="cls-4" x1="46.54" y1="28.91" x2="54.36" y2="52.64"/><polyline class="cls-4" points="25.7 45.19 34.81 55.73 37.07 30.7"/><line class="cls-4" x1="31.55" y1="85.05" x2="14.92" y2="49.58"/><path class="cls-4" d="M37.1,30.7a9.36,9.36,0,0,1-7.18-8.93,9.53,9.53,0,0,1,9.78-9.26,9.53,9.53,0,0,1,9.78,9.26,9,9,0,0,1-3.07,6.74"/><path class="cls-4" d="M15.49,49.46a9.45,9.45,0,0,1-8.38-9.17A9.53,9.53,0,0,1,16.89,31a9.53,9.53,0,0,1,9.78,9.26,8.8,8.8,0,0,1-1.56,5"/><line class="cls-4" x1="62.28" y1="28.65" x2="54.36" y2="52.64"/><polyline class="cls-4" points="83.43 45.05 73.92 55.73 71.66 31"/><line class="cls-4" x1="77.18" y1="85.05" x2="93.92" y2="49.34"/><path class="cls-4" d="M71.63,30.7a9.35,9.35,0,0,0,7.17-8.93,9.79,9.79,0,0,0-19.55,0,9,9,0,0,0,3.07,6.74"/><path class="cls-4" d="M83.47,45.09l.15.21"/><path class="cls-4" d="M93.92,49.34a9.39,9.39,0,0,0,7.7-9.05,9.79,9.79,0,0,0-19.56,0,8.91,8.91,0,0,0,1.41,4.8"/><path class="cls-4" d="M25.14,96.14H83.59S86.61,81,54.36,81,25.14,96.14,25.14,96.14Z"/><polygon class="cls-2" points="15.12 48.87 15.62 48.64 16.12 50.96 15.12 48.87"/><polygon points="83.79 44.64 83.62 44.64 83.62 45.59 84.1 45.13 83.79 44.64"/></g></g></svg>