<svg xmlns="http://www.w3.org/2000/svg" viewBox="0 0 107.95 107.84"><defs><style>.cls-1{fill:#282828;}.cls-1,.cls-3{stroke:#000;stroke-miterlimit:10;}.cls-2{fill:#fff;opacity:0.15;}.cls-3{fill:none;}</style></defs><title>Black Bishop</title><g id="black"><g id="bishop_copy" data-name="bishop copy"><path class="cls-1" d="M28.11,95.93h52s2.68-13.43-26-13.43S28.11,95.93,28.11,95.93Z"/><path class="cls-1" d="M61,20.78c0-4.5-3.34-8.14-7.45-8.14s-7.46,3.64-7.46,8.14a8.52,8.52,0,0,0,2.21,5.78c-22.54,20.12-20.49,41.87-9,57.12a142.11,142.11,0,0,1,29.81,0C79.78,71,84.65,50.05,63.69,30.4,59.93,36.78,58.2,46.77,58.27,60H50.14C50.11,43.66,53.36,30.27,61,20.78Z"/><path class="cls-2" d="M56.77,13.54c4.4,2.26,4.12,5.55,3.76,7.81-8.64,6.58-10.69,39-10.82,38.77C40,42.38,63.84,22.38,56.77,13.54Z"/><path class="cls-2" d="M71.94,40c10.43,13.41,6.67,28.51-2.63,44.26L58.56,82.5C68,70.87,75.17,56.38,71.94,40Z"/><path class="cls-3" d="M28.11,95.93h52s2.68-13.43-26-13.43S28.11,95.93,28.11,95.93Z"/><path class="cls-3" d="M61,20.78c0-4.5-3.34-8.14-7.45-8.14s-7.46,3.64-7.46,8.14a8.52,8.52,0,0,0,2.21,5.78c-22.54,20.12-20.49,41.87-9,57.12a142.11,142.11,0,0,1,29.81,0C79.78,71,84.65,50.05,63.69,30.4,59.93,36.78,58.2,46.77,58.27,60H50.14C50.11,43.66,53.36,30.27,61,20.78Z"/></g></g></svg>