<svg xmlns="http://www.w3.org/2000/svg" viewBox="0 0 131.92 131.8"><defs><style>.cls-1,.cls-2{fill:#282828;}.cls-1,.cls-4{stroke:#000;stroke-miterlimit:10;}.cls-3{fill:#fff;opacity:0.15;}.cls-4{fill:none;}</style></defs><title>Black-Queen-02</title><g id="Layer_10" data-name="Layer 10"><g id="queen_copy" data-name="queen copy"><path class="cls-1" d="M37.13,108.11H95.57S98.6,93,66.35,93,37.13,108.11,37.13,108.11Z"/><polyline class="cls-1" points="43.54 97.03 26.8 61.31 27.25 59.98 35.39 55.35 37.55 57.02 46.8 67.7 49.06 43.01 49.09 39.92 59.84 38.37 58.46 40.7 66.35 64.61"/><path class="cls-1" d="M49.09,42.67a9.36,9.36,0,0,1-7.18-8.93,9.79,9.79,0,0,1,19.55,0,9,9,0,0,1-3.07,6.74"/><path class="cls-1" d="M27.47,61.43a9.43,9.43,0,0,1-8.37-9.16A9.54,9.54,0,0,1,28.88,43a9.53,9.53,0,0,1,9.77,9.27,8.91,8.91,0,0,1-1.55,5"/><polyline class="cls-1" points="89.16 97.03 105.91 61.31 105.46 59.98 97.09 55.15 85.9 67.7 83.63 42.84 84.28 41.46 74.5 38.37 74.31 40.48 66.35 64.61"/><path class="cls-1" d="M83.62,42.67a9.37,9.37,0,0,0,7.17-8.93,9.79,9.79,0,0,0-19.55,0,9,9,0,0,0,3.07,6.74"/><path class="cls-1" d="M105.5,61.39a9.42,9.42,0,0,0,8.1-9.12,9.79,9.79,0,0,0-19.55,0,8.91,8.91,0,0,0,1.55,5"/><polyline class="cls-2" points="43.78 80.33 44.18 69.35 61.41 63.62 72.17 63.62 90.53 69.35 89.53 97.03 48.22 96.08 43.18 97.03 43.78 80.33"/><path class="cls-3" d="M54.52,24.88a16.15,16.15,0,0,1,6,4.82,12.58,12.58,0,0,1,.83,6.87l-2.71,4,.5,2,5.5,16s-7.32-14-9.33-18S63.84,36.38,54.52,24.88Z"/><path class="cls-3" d="M109.68,44.63a15.93,15.93,0,0,1,3.87,6.66,17,17,0,0,1-1.36,5.77c-1.67,1.89-4.59,3.55-6.74,5.23L88.47,97,73.41,93c7,0,26.78-29.34,28.57-32.8C107.66,52.69,111.7,58.74,109.68,44.63Z"/><path class="cls-3" d="M86.44,26l3.83,4.72a11.88,11.88,0,0,1-.74,7.84l-5.9,4.25,2,23.77s-4.13-22-4.13-26S91.54,38.59,86.44,26Z"/><polygon points="107.67 60.76 105.19 61.65 105.47 60.8 107.3 60.39 107.67 60.76"/><polygon points="83.28 44.54 83.83 44.51 83.62 42.15 83.02 42.27 83.28 44.54"/><polygon points="73.97 41.16 74.45 41.65 74.91 40.26 74.26 39.74 73.92 40.09 73.97 41.16"/><polygon points="67.36 62.77 65.75 64.38 66.35 66.8 67.36 62.77"/><line class="cls-4" x1="58.52" y1="40.88" x2="66.35" y2="64.61"/><polyline class="cls-4" points="37.68 57.17 46.8 67.7 49.06 42.67"/><line class="cls-4" x1="43.54" y1="97.03" x2="26.91" y2="61.55"/><path class="cls-4" d="M49.09,42.67a9.36,9.36,0,0,1-7.18-8.93,9.79,9.79,0,0,1,19.55,0,9,9,0,0,1-3.07,6.74"/><path class="cls-4" d="M27.47,61.43a9.43,9.43,0,0,1-8.37-9.16A9.54,9.54,0,0,1,28.88,43a9.53,9.53,0,0,1,9.77,9.27,8.91,8.91,0,0,1-1.55,5"/><line class="cls-4" x1="74.27" y1="40.62" x2="66.35" y2="64.61"/><polyline class="cls-4" points="95.42 57.03 85.9 67.7 83.64 42.98"/><line class="cls-4" x1="89.16" y1="97.03" x2="105.9" y2="61.31"/><path class="cls-4" d="M83.62,42.67a9.37,9.37,0,0,0,7.17-8.93,9.79,9.79,0,0,0-19.55,0,9,9,0,0,0,3.07,6.74"/><path class="cls-4" d="M95.46,57.06l.14.22"/><path class="cls-4" d="M105.91,61.32a9.39,9.39,0,0,0,7.69-9,9.79,9.79,0,0,0-19.55,0,8.9,8.9,0,0,0,1.41,4.79"/><path class="cls-4" d="M37.13,108.11H95.57S98.6,93,66.35,93,37.13,108.11,37.13,108.11Z"/><polygon points="95.77 56.61 95.6 56.61 95.6 57.57 96.09 57.11 95.77 56.61"/></g></g></svg>