<svg xmlns="http://www.w3.org/2000/svg" viewBox="0 0 107.95 107.84"><defs><style>.cls-1{fill:#282828;}.cls-1,.cls-3{stroke:#000;stroke-miterlimit:10;}.cls-2{fill:#fff;opacity:0.15;}.cls-3{fill:none;}</style></defs><title>Black Knight</title><g id="black"><g id="knight_copy" data-name="knight copy"><path class="cls-1" d="M37.83,84.15l43.11,1.43C90,51.15,83.44,25,53.63,21.33c-.17-.1-8.62-8.6-8.62-8.6-.49-.75-5.17,3.33-4.31,8.6C35.4,24.62,31.88,30.58,30.64,40L19.14,54.31C18,61,24.41,63.4,33.51,64.35c1.81-6.92,6.23-4.55,10.06-5.73s9.89-3.2,11.5-10C60.82,61.48,36.39,72.68,37.83,84.15Z"/><path class="cls-1" d="M30.28,95.64H88.73s3-15.08-29.23-15.08S30.28,95.64,30.28,95.64Z"/><path class="cls-2" d="M67.87,25.24c16.82,23.14,4.33,36.37-1.31,55.32,6.16.39,9.48,1.61,15.16,3.93C80.92,84.45,95.4,41.24,67.87,25.24Z"/><path class="cls-2" d="M56.48,40.34c2.37,8.33-.62,15.88-.86,15.88v-5L54.92,47S55.11,42.32,56.48,40.34Z"/><path class="cls-2" d="M33.31,63.46c1.85-4.12,3.31-3.82,9.31-4.82C42.62,58.64,32.3,52.4,33.31,63.46Z"/><path class="cls-3" d="M81.32,84.1C89.77,50.4,83,25,53.63,21.33c-.17-.1-8.62-8.6-8.62-8.6-.49-.75-5.17,3.33-4.31,8.6C35.4,24.62,31.88,30.58,30.64,40L19.14,54.31C18,61,24.41,63.4,33.51,64.35c1.81-6.92,6.23-4.55,10.06-5.73s9.89-3.2,11.5-10c5.75,12.9-18.68,24.1-17.24,35.57"/><path class="cls-3" d="M30.28,95.64H88.73s3-15.08-29.23-15.08S30.28,95.64,30.28,95.64Z"/><path class="cls-2" d="M38.72,38.33a6.78,6.78,0,0,1,4.84-1.21c3.74-1.08,2.41-4.83,0-4.83S38.67,35.62,38.72,38.33Z"/></g></g></svg>