<svg xmlns="http://www.w3.org/2000/svg" viewBox="0 0 107.95 107.84"><defs><style>.cls-1,.cls-3{fill:#fff;}.cls-1,.cls-4{stroke:#000;stroke-miterlimit:10;}.cls-2{fill:#bfbebe;}.cls-4{fill:none;}</style></defs><title>White King</title><g id="white"><g id="king_copy_2" data-name="king copy 2"><path class="cls-1" d="M24.43,95.14H82.87S85.89,80,53.65,80,24.43,95.14,24.43,95.14Z"/><path class="cls-1" d="M91.89,49.21c-8.34-18.38-22.74-14.84-38.24-7.29-17.1-7.74-31.86-10-38.24,7.29C10,72.51,27.78,69.53,31.8,85.63H74.14C80.09,73.26,97.35,65.23,91.89,49.21ZM45.46,71.06h-4.1c-4.09-5.83-8.58-7.7-9.56-11.66C29.07,50.66,40,47.75,45.46,55ZM75.07,59.4c-1,4-5.46,5.83-9.56,11.66H61.42V55C66.88,47.75,77.8,50.66,75.07,59.4Z"/><polygon class="cls-1" points="53.65 37.05 48.19 34.28 49.56 28.11 41.36 28.11 41.36 20.44 49.56 20.44 49.56 13.52 57.75 13.52 57.75 20.44 65.94 20.44 65.94 28.11 57.75 28.11 59.12 34.28 53.65 37.05"/><path class="cls-2" d="M84.88,39.72C105,55.84,80.85,74,75.5,83.93A32.77,32.77,0,0,0,70.78,82C74.81,65.92,99,63.9,84.88,39.72Z"/><polygon class="cls-2" points="54.66 25.61 56.67 25.61 59.13 33.77 56.67 35.69 54.66 25.61"/><polygon class="cls-3" points="52.64 25.61 56.67 25.61 57.28 27.64 53.02 27.64 52.64 25.61"/><polygon class="cls-2" points="63.07 20.44 63.07 27.63 65.94 27.63 65.62 20.64 63.07 20.44"/><rect class="cls-2" x="54.9" y="13.52" width="2.72" height="8.06"/><rect class="cls-3" x="54.66" y="20.9" width="4.03" height="1.73"/><path class="cls-4" d="M91.89,49.21c-8.34-18.38-22.74-14.84-38.24-7.29-17.1-7.74-31.86-10-38.24,7.29C10,72.51,27.78,69.53,31.8,85.63H74.14C80.09,73.26,97.35,65.23,91.89,49.21ZM45.46,71.06h-4.1c-4.09-5.83-8.58-7.7-9.56-11.66C29.07,50.66,40,47.75,45.46,55ZM75.07,59.4c-1,4-5.46,5.83-9.56,11.66H61.42V55C66.88,47.75,77.8,50.66,75.07,59.4Z"/><polygon class="cls-4" points="53.65 37.05 48.19 34.28 49.56 28.11 41.36 28.11 41.36 20.44 49.56 20.44 49.56 13.52 57.75 13.52 57.75 20.44 65.94 20.44 65.94 28.11 57.75 28.11 59.12 34.28 53.65 37.05"/><path class="cls-1" d="M24.43,95.14H82.87S85.89,80,53.65,80,24.43,95.14,24.43,95.14Z"/></g></g></svg>