<svg xmlns="http://www.w3.org/2000/svg" viewBox="0 0 107.95 107.84"><defs><style>.cls-1,.cls-4{fill:#fff;}.cls-1,.cls-3{stroke:#000;stroke-miterlimit:10;}.cls-2{fill:#bfbebe;}.cls-3{fill:none;}</style></defs><title>White Pawn</title><g id="white"><g id="pawn_copy_2" data-name="pawn copy 2"><path class="cls-1" d="M53.43,95.33H79.62c0-12.64-18.07-18.06-19.87-45.15h9l1.81-3.62L59.93,40l-.58.23a14.45,14.45,0,1,0-10,0L48.72,40,38.07,46.56l1.81,3.62h9C47.1,77.27,29,82.69,29,95.33H55.23"/><path class="cls-2" d="M53.43,40.24h6.09c10.16-5.42,12-18.06,4.74-23.48C67.88,29.4,61.55,37.53,53.43,40.24Z"/><path class="cls-2" d="M60,49.73C59.07,66.2,74.3,83.23,76.91,87.2,55.23,76.37,62.46,58.3,48.56,53.79l.57-4.06Z"/><path class="cls-3" d="M53.43,95.33H79.62c0-12.64-18.07-18.06-19.87-45.15h9l1.81-3.62L59.93,40l-.58.23a14.45,14.45,0,1,0-10,0L48.72,40,38.07,46.56l1.81,3.62h9C47.1,77.27,29,82.69,29,95.33H55.23"/><polygon class="cls-4" points="50.55 41.55 47.89 41.05 49.48 39.83 50.55 41.55"/><polygon class="cls-4" points="60.12 40.66 59.07 41.11 59.18 39.83 60.12 40.66"/><polygon class="cls-2" points="59.15 40.24 59.18 39.83 59.65 40.24 59.15 40.24"/></g></g></svg>