<svg xmlns="http://www.w3.org/2000/svg" viewBox="0 0 79.56 82.62"><defs><style>.cls-1,.cls-3{fill:#fff;}.cls-1,.cls-4{stroke:#000;stroke-miterlimit:10;}.cls-2{fill:#bfbebe;}.cls-4{fill:none;}</style></defs><title>White King</title><g id="Layer_2" data-name="Layer 2"><g id="white"><g id="king"><path class="cls-1" d="M10.54,82.12H69S72,67,39.76,67,10.54,82.12,10.54,82.12Z"/><path class="cls-1" d="M78,36.18C69.67,17.81,55.27,21.35,39.77,28.9c-17.11-7.74-31.86-10-38.24,7.28C-3.93,59.49,13.89,56.51,17.92,72.6H60.25C66.21,60.24,83.47,52.21,78,36.18ZM31.58,58h-4.1c-4.1-5.83-8.58-7.7-9.56-11.66C15.19,37.64,26.11,34.73,31.58,42ZM61.19,46.38c-1,4-5.46,5.83-9.56,11.66h-4.1V42C53,34.73,63.92,37.64,61.19,46.38Z"/><polygon class="cls-1" points="39.77 24.03 34.31 21.26 35.67 15.09 27.48 15.09 27.48 7.42 35.67 7.42 35.67 0.5 43.87 0.5 43.87 7.42 52.06 7.42 52.06 15.09 43.87 15.09 45.23 21.26 39.77 24.03"/><path class="cls-2" d="M71,26.7c20.73,18.76-4.66,33.59-9.38,44.21A32.81,32.81,0,0,0,56.89,69C60.92,52.9,85.11,50.88,71,26.7Z"/><polygon class="cls-2" points="40.77 12.59 42.79 12.59 45.24 20.75 42.79 22.67 40.77 12.59"/><polygon class="cls-3" points="39.76 12.59 43.79 12.59 44.21 14.6 40.02 14.58 39.76 12.59"/><polygon class="cls-2" points="49.18 7.51 49.18 15.46 52.06 15.46 52.06 7.42 49.18 7.51"/><rect class="cls-2" x="41.02" y="0.5" width="2.72" height="8.06"/><polygon class="cls-3" points="40.77 9.46 44.8 9.46 44.8 7.92 40.77 7.9 40.77 9.46"/><path class="cls-4" d="M78,36.18C69.67,17.81,55.27,21.35,39.77,28.9c-17.11-7.74-31.86-10-38.24,7.28C-3.93,59.49,13.89,56.51,17.92,72.6H60.25C66.21,60.24,83.47,52.21,78,36.18ZM31.58,58h-4.1c-4.1-5.83-8.58-7.7-9.56-11.66C15.19,37.64,26.11,34.73,31.58,42ZM61.19,46.38c-1,4-5.46,5.83-9.56,11.66h-4.1V42C53,34.73,63.92,37.64,61.19,46.38Z"/><polygon class="cls-4" points="39.77 24.03 34.31 21.26 35.67 15.09 27.48 15.09 27.48 7.42 35.67 7.42 35.67 0.5 43.87 0.5 43.87 7.42 52.06 7.42 52.06 15.09 43.87 15.09 45.23 21.26 39.77 24.03"/><path class="cls-1" d="M10.54,82.12H69S72,67,39.76,67,10.54,82.12,10.54,82.12Z"/></g></g></g></svg>