<svg xmlns="http://www.w3.org/2000/svg" viewBox="0 0 57.43 93.7"><defs><style>.cls-1{fill:#fff;}.cls-1,.cls-3{stroke:#000;stroke-miterlimit:10;}.cls-2{fill:#bfbebe;}.cls-3{fill:none;}</style></defs><title>Asset 6</title><g id="Layer_2" data-name="Layer 2"><g id="white"><g id="pawn"><path class="cls-1" d="M27.71,93.2H56.93c0-14.11-20.16-20.15-22.17-50.38H44.84l2-4L35,31.49l-.65.25a16.13,16.13,0,1,0-11.21,0l-.65-.25-11.88,7.3,2,4H22.67C20.65,73.05.5,79.09.5,93.2H29.72"/><path class="cls-2" d="M27.71,31.74h6.8c11.33-6,13.35-20.16,5.29-26.2C43.83,19.64,36.77,28.71,27.71,31.74Z"/><path class="cls-2" d="M23,42.54H35c0,12,6.81,27.49,18.9,41.59C29.72,72,37.78,51.89,22.28,46.85Z"/><path class="cls-3" d="M27.71,93.2H56.93c0-14.11-20.16-20.15-22.17-50.38H44.84l2-4L35,31.49l-.65.25a16.13,16.13,0,1,0-11.21,0l-.65-.25-11.88,7.3,2,4H22.67C20.65,73.05.5,79.09.5,93.2H29.72"/></g></g></g></svg>