<svg xmlns="http://www.w3.org/2000/svg" viewBox="0 0 59.59 94.71"><defs><style>.cls-1{fill:#fff;}.cls-1,.cls-3{stroke:#000;stroke-miterlimit:10;}.cls-2{fill:#bfbebe;}.cls-3{fill:none;}</style></defs><title>White Bishop</title><g id="Layer_2" data-name="Layer 2"><g id="white"><g id="bishop"><path class="cls-1" d="M.58,94.21H59S62,79.09,29.8,79.09.58,94.21.58,94.21Z"/><path class="cls-1" d="M37.56,9.66C37.56,4.6,33.8.5,29.17.5s-8.39,4.1-8.39,9.16a9.57,9.57,0,0,0,2.48,6.5C-2.09,38.8.22,63.27,13.16,80.42a160.67,160.67,0,0,1,33.54,0c12-14.31,17.49-37.83-6.1-59.94-4.22,7.18-6.17,18.42-6.09,33.3H25.36C25.32,35.41,29,20.33,37.56,9.66Z"/><path class="cls-2" d="M32.82,1.52C39.68,4,36.89,12.3,35.17,13.61,27.68,19.3,24.25,49.23,25.24,54c.09-.46-.4.26-.4.26a16.23,16.23,0,0,1-1.62-3.4C17.25,31.84,40.26,10.82,32.82,1.52Z"/><path class="cls-2" d="M49.88,31.31c11.24,16,9.52,33.59-3.81,49.38-.24.28-11.24-1.6-11.24-1.6C45.48,66,53.52,49.72,49.88,31.31Z"/><path class="cls-3" d="M.58,94.21H59S62,79.09,29.8,79.09.58,94.21.58,94.21Z"/><path class="cls-3" d="M37.56,9.66C37.56,4.6,33.8.5,29.17.5s-8.39,4.1-8.39,9.16a9.57,9.57,0,0,0,2.48,6.5C-2.09,38.8.22,63.27,13.16,80.42a160.67,160.67,0,0,1,33.54,0c12-14.31,17.49-37.83-6.1-59.94-4.22,7.18-6.17,18.42-6.09,33.3H25.36C25.32,35.41,29,20.33,37.56,9.66Z"/></g></g></g></svg>