<svg xmlns="http://www.w3.org/2000/svg" viewBox="0 0 107.95 107.84"><defs><style>.cls-1{fill:#fff;}.cls-1,.cls-3{stroke:#000;stroke-miterlimit:10;}.cls-2{fill:#bfbebe;}.cls-3{fill:none;}</style></defs><title>White Rook</title><g id="white"><g id="rook_copy_2" data-name="rook copy 2"><path class="cls-1" d="M32.76,86.94l.4-3.86L37.28,44c-8.3,0-7.62-14.68-9-25.77a27.74,27.74,0,0,1,10.56-3.44l3,12h4.53l1.51-13.75H59.93l1.51,13.75H66l3-12a27.73,27.73,0,0,1,10.57,3.44C78.12,29.31,78.8,44,70.49,44L75,86.94"/><path class="cls-1" d="M28.27,95.64H79.55S82.2,82,53.91,82,28.27,95.64,28.27,95.64Z"/><path class="cls-2" d="M75.88,16.47l3.22,1.27c0,4.5,0,20.71-5.15,25.09-1.83,1.58-4.5,1.57-8.09-.21C73.83,40.76,75.35,29.35,75.88,16.47Z"/><path class="cls-2" d="M46.81,41.53c8.06-1.06,16-.68,23.9,2.38l4.31,43-7.23-3.41C68.51,58.92,63.22,42.58,46.81,41.53Z"/><path class="cls-3" d="M37.13,44.44c11.35-4.72,22.56-4.88,33.71,0"/><path class="cls-3" d="M32.76,86.94l.4-3.86L37.28,44c-8.3,0-7.62-14.68-9-25.77a27.74,27.74,0,0,1,10.56-3.44l3,12h4.53l1.51-13.75H59.93l1.51,13.75H66l3-12a27.73,27.73,0,0,1,10.57,3.44C78.12,29.31,78.8,44,70.49,44L75,86.94"/><path class="cls-3" d="M28.27,95.64H79.55S82.2,82,53.91,82,28.27,95.64,28.27,95.64Z"/></g></g></svg>