<svg xmlns="http://www.w3.org/2000/svg" viewBox="0 0 70.79 84.18"><defs><style>.cls-1{fill:#fff;}.cls-1,.cls-3{stroke:#000;stroke-miterlimit:10;}.cls-2{fill:#bfbebe;}.cls-3{fill:none;}</style></defs><title>White Knight</title><g id="Layer_2" data-name="Layer 2"><g id="white"><g id="knight"><path class="cls-1" d="M19.32,72.16,62.43,73.6c9-34.51,2.5-60.71-27.3-64.39C35,9.11,26.51.59,26.51.59c-.5-.75-5.17,3.34-4.32,8.62-5.3,3.29-8.82,9.27-10.06,18.68L.64,42.26C-.53,48.93,5.91,51.37,15,52.32c1.8-6.93,6.22-4.55,10.06-5.74S35,43.37,36.57,36.52C42.31,49.45,17.88,60.67,19.32,72.16Z"/><path class="cls-1" d="M11.78,83.68H70.22s3-15.12-29.22-15.12S11.78,83.68,11.78,83.68Z"/><path class="cls-2" d="M49.36,13.13c16.83,23.19,4.33,36.45-1.31,55.43,5.17.42,8.93,1.8,15.16,4C63.11,73,76.11,28,49.36,13.13Z"/><path class="cls-2" d="M38,28.26C40.34,36.6,37.36,44,37.11,44c.34-3.46.27-6.14-.86-6.83C36.25,37.19,36.6,30.25,38,28.26Z"/><path class="cls-2" d="M14.8,51.43c1.85-4.13,5.36-5.2,10.08-4C24.88,47.4,13.79,40.35,14.8,51.43Z"/><path class="cls-3" d="M62.81,72.11c8.45-33.77,1.69-59.27-27.68-62.9C35,9.11,26.51.59,26.51.59c-.5-.75-5.17,3.34-4.32,8.62-5.3,3.29-8.82,9.27-10.06,18.68L.64,42.26C-.53,48.93,5.91,51.37,15,52.32c1.8-6.93,6.22-4.55,10.06-5.74S35,43.37,36.57,36.52c5.74,12.93-18.69,24.15-17.25,35.64"/><path class="cls-3" d="M11.78,83.68H70.22s3-15.12-29.22-15.12S11.78,83.68,11.78,83.68Z"/><path d="M20.21,26.24A6.8,6.8,0,0,1,25.05,25c3.74-1.08,2.42-4.83,0-4.83S20.17,23.53,20.21,26.24Z"/></g></g></g></svg>