<svg xmlns="http://www.w3.org/2000/svg" viewBox="0 0 95.5 84.63"><defs><style>.cls-1,.cls-2{fill:#fff;}.cls-1,.cls-4{stroke:#000;stroke-miterlimit:10;}.cls-3{fill:#bfbebe;}.cls-4{fill:none;}</style></defs><title>White Queen</title><g id="Layer_2" data-name="Layer 2"><g id="white"><g id="queen"><path class="cls-1" d="M18.53,84.13H77S80,69,47.75,69,18.53,84.13,18.53,84.13Z"/><polyline class="cls-1" points="24.94 73.05 8.2 37.33 8.65 36 16.79 31.37 18.95 33.04 28.2 43.72 30.46 19.02 30.49 15.94 41.23 14.39 39.86 16.71 47.75 40.63"/><path class="cls-1" d="M30.49,18.69a9.36,9.36,0,0,1-7.18-8.93A9.53,9.53,0,0,1,33.09.5a9.53,9.53,0,0,1,9.77,9.26,9,9,0,0,1-3.07,6.74"/><path class="cls-1" d="M8.87,37.45A9.44,9.44,0,0,1,.5,28.28,9.53,9.53,0,0,1,10.28,19a9.53,9.53,0,0,1,9.77,9.26,8.87,8.87,0,0,1-1.55,5"/><polyline class="cls-1" points="70.56 73.05 87.3 37.33 86.86 36 78.49 31.16 67.3 43.72 65.03 18.85 65.67 17.48 55.9 14.39 55.71 16.5 47.75 40.63"/><path class="cls-1" d="M65,18.69a9.37,9.37,0,0,0,7.17-8.93,9.79,9.79,0,0,0-19.55,0,9,9,0,0,0,3.07,6.74"/><path class="cls-1" d="M86.63,37.45A9.44,9.44,0,0,0,95,28.28a9.79,9.79,0,0,0-19.55,0,8.87,8.87,0,0,0,1.55,5"/><polyline class="cls-2" points="63.92 17.84 64.28 17.77 62.87 16.62 62.87 18.02 63.92 17.84"/><polygon class="cls-2" points="29.61 72.09 24.58 73.05 25.58 45.37 42.81 39.64 53.57 39.64 71.93 45.37 70.93 73.05 29.61 72.09"/><path class="cls-3" d="M67.83,2.05a14.52,14.52,0,0,1,3.84,4.72c.73,2.94.64,5.61-.74,7.84A12.8,12.8,0,0,1,65,18.85l2,23.62s-4.13-21.82-4.13-25.85S72.94,14.61,67.83,2.05Z"/><path class="cls-3" d="M35.92.89a14.37,14.37,0,0,1,6,4.83c.93,1.13.82,4.12.83,6.87L40,16.47l.5,2.17L44,30.47s-5.32-9.82-7.33-13.85S45.24,12.4,35.92.89Z"/><path class="cls-3" d="M10.47,18.64c11.91,9.73,0,10.07,6,16.12l12.1,10.08L18.53,32.74c1.3-1.45,1.77-3.58,1.52-6.28l-3.17-5Z"/><path class="cls-3" d="M91.08,20.65c2.19,2.07,3.76,4.24,3.87,6.65a6.44,6.44,0,0,1-1.36,5.78c-6.49,6-6,3.24-6.74,5.23L70,73.47c-4-2.65-9.42-3.73-15.2-4.45,7,0,26.79-29.34,28.58-32.81C89.06,28.71,93.09,34.76,91.08,20.65Z"/><polygon points="76.97 33.61 76.97 33.06 77.24 32.74 77.48 33.11 76.97 33.61"/><polygon points="86.6 37.66 86.88 36.87 88.85 36.76 86.6 37.66"/><polygon points="64.68 20.56 65.23 20.53 65.02 18.17 64.36 18.32 64.68 20.56"/><polygon points="55.23 16.79 55.85 17.66 56.35 16.27 55.66 15.76 55.14 16.33 55.23 16.79"/><polygon points="39.79 15.79 40.08 16.34 40.37 16.95 39.69 17.63 39.1 16.24 39.79 15.79"/><polygon points="48.76 38.79 47.15 40.4 47.75 42.82 48.76 38.79"/><polygon points="30.52 18.18 30.46 19.02 30.96 18.93 30.98 18.27 30.52 18.18"/><polygon points="18.9 33.75 19.54 33.75 18.23 32.8 18.04 33.01 18.9 33.75"/><line class="cls-4" x1="39.92" y1="16.9" x2="47.75" y2="40.63"/><polyline class="cls-4" points="19.08 33.19 28.2 43.72 30.46 18.69"/><line class="cls-4" x1="24.94" y1="73.05" x2="8.31" y2="37.57"/><path class="cls-4" d="M30.49,18.69a9.36,9.36,0,0,1-7.18-8.93A9.53,9.53,0,0,1,33.09.5a9.53,9.53,0,0,1,9.77,9.26,9,9,0,0,1-3.07,6.74"/><path class="cls-4" d="M8.87,37.45A9.44,9.44,0,0,1,.5,28.28,9.53,9.53,0,0,1,10.28,19a9.53,9.53,0,0,1,9.77,9.26,8.87,8.87,0,0,1-1.55,5"/><line class="cls-4" x1="55.66" y1="16.64" x2="47.75" y2="40.63"/><polyline class="cls-4" points="76.82 33.04 67.3 43.72 65.04 19"/><line class="cls-4" x1="70.56" y1="73.05" x2="87.3" y2="37.33"/><path class="cls-4" d="M65,18.69a9.37,9.37,0,0,0,7.17-8.93,9.79,9.79,0,0,0-19.55,0,9,9,0,0,0,3.07,6.74"/><path class="cls-4" d="M76.86,33.08l.14.21"/><path class="cls-4" d="M87.3,37.34A9.4,9.4,0,0,0,95,28.28a9.79,9.79,0,0,0-19.55,0,8.91,8.91,0,0,0,1.41,4.8"/><path class="cls-4" d="M18.53,84.13H77S80,69,47.75,69,18.53,84.13,18.53,84.13Z"/></g></g></g></svg>